<svg width="306" height="204" viewBox="0 0 306 204" fill="none" xmlns="http://www.w3.org/2000/svg">
	<g clip-path="url(#clip0_2993_34322)">
		<path d="M237.517 119.645L237.194 121.41C234.431 136.296 224.239 148.229 210.42 152.021C208.641 152.512 206.826 152.859 204.992 153.061C191.74 154.537 177.614 148.378 168.786 137.265C163.594 130.731 159.879 122.423 152.886 118.238C143.778 112.787 132.773 116.351 123.288 120.003C113.795 123.663 102.782 127.193 93.6909 121.698C88.0006 118.265 84.3293 111.834 82.4063 105.248C77.2927 87.8189 83.1842 68.5994 94.801 56.0194C106.418 43.4391 122.983 36.9131 139.774 34.8252C163.288 31.9073 188.585 37.5509 208.025 53.1015C227.465 68.6518 240.043 94.6767 237.517 119.645Z" fill="url(#paint0_linear_2993_34322)"/>
		<path d="M81.0048 101.851C84.8319 93.7441 81.3625 84.0697 73.2559 80.2427C65.1493 76.416 55.4749 79.8854 51.6479 87.992C47.8212 96.0986 51.2905 105.773 59.3972 109.6C67.5038 113.427 77.1778 109.957 81.0048 101.851Z" fill="#D8D8D8"/>
		<path d="M80.2372 99.4065C80.2501 99.9692 80.8522 100.32 81.3483 100.054L87.6645 96.6654C88.1976 96.3795 88.1939 95.6134 87.6577 95.3326L81.1885 91.9438C80.6795 91.6773 80.0713 92.0547 80.0842 92.6289L80.2372 99.4065Z" fill="#D8D8D8"/>
		<path d="M60.5861 95.3428C60.5811 95.6286 60.5197 95.9105 60.4056 96.1726C60.2915 96.4347 60.1268 96.6716 59.921 96.87C59.7152 97.0683 59.4723 97.2241 59.2062 97.3285C58.9401 97.4329 58.6561 97.4838 58.3703 97.4783C58.0845 97.4733 57.8026 97.412 57.5405 97.2978C57.2785 97.1837 57.0415 97.019 56.8431 96.8132C56.6448 96.6074 56.489 96.3645 56.3846 96.0985C56.2802 95.8324 56.2293 95.5483 56.2348 95.2625C56.2399 94.9768 56.3012 94.6948 56.4154 94.4328C56.5295 94.1708 56.6942 93.9338 56.9 93.7355C57.1058 93.5371 57.3486 93.3813 57.6147 93.2769C57.8808 93.1725 58.1648 93.1216 58.4506 93.127C59.0275 93.138 59.5764 93.3775 59.9768 93.793C60.3773 94.2085 60.5964 94.7659 60.5861 95.3428ZM68.145 95.6634C68.0226 96.8578 66.9506 97.7272 65.7561 97.6048C64.5617 97.4824 63.6923 96.4104 63.8147 95.2163C63.9371 94.0219 65.0092 93.1525 66.2036 93.2749C67.398 93.4014 68.2674 94.469 68.145 95.6634ZM75.252 95.7943C75.1296 96.9887 74.0576 97.8581 72.8632 97.7357C71.6687 97.6133 70.7994 96.5413 70.9218 95.3469C71.0442 94.1525 72.1162 93.2831 73.3106 93.4055C73.595 93.4348 73.8708 93.5198 74.1222 93.6557C74.3737 93.7917 74.596 93.9758 74.7763 94.1976C74.9565 94.4195 75.0914 94.6747 75.173 94.9486C75.2546 95.2226 75.2815 95.51 75.252 95.7943Z" fill="white"/>
		<path fill-rule="evenodd" clip-rule="evenodd" d="M100.727 97.2094V158.681C100.727 165.988 106.644 171.906 113.951 171.906H206.512C213.818 171.906 219.736 165.988 219.736 158.681V97.2094" fill="#D8D8D8"/>
		<path d="M100.727 97.2094V158.681C100.727 165.988 106.644 171.906 113.951 171.906H206.512C213.818 171.906 219.736 165.988 219.736 158.681V97.2094" stroke="#D8D8D8" stroke-width="8.8638" stroke-linecap="round" stroke-linejoin="round"/>
		<path fill-rule="evenodd" clip-rule="evenodd" d="M106.586 86.2396L152.831 55.1303C155.019 53.6594 157.596 52.8738 160.233 52.8738C162.869 52.8738 165.446 53.6594 167.635 55.1303L213.879 86.2396C221.668 91.4831 221.668 102.942 213.879 108.185L175.04 134.316C166.088 140.339 154.384 140.339 145.432 134.316L106.593 108.185C98.797 102.942 98.797 91.4763 106.586 86.2396Z" fill="white" stroke="#D8D8D8" stroke-width="8.8638" stroke-linecap="round" stroke-linejoin="round"/>
		<path d="M137.866 89.5142H182.603M142.787 107.26H177.866" stroke="#D8D8D8" stroke-width="8.29804" stroke-linecap="round" stroke-linejoin="round"/>
		<path d="M244.217 146.073L232.738 157.551C232.32 157.969 232.32 158.647 232.738 159.065C233.156 159.483 233.834 159.483 234.252 159.065L245.73 147.586C246.148 147.168 246.148 146.491 245.73 146.073C245.312 145.655 244.635 145.655 244.217 146.073Z" fill="#E1E4E5"/>
		<path d="M243.093 154.291L239.783 157.602C239.365 158.02 239.365 158.697 239.783 159.115C240.201 159.533 240.879 159.533 241.297 159.115L244.607 155.805C245.025 155.387 245.025 154.709 244.607 154.291C244.189 153.873 243.511 153.873 243.093 154.291Z" fill="#E1E4E5"/>
		<path d="M178.965 41.3651L190.443 29.8867C190.861 29.4687 190.861 28.791 190.443 28.373C190.025 27.955 189.348 27.955 188.93 28.373L177.451 39.8514C177.033 40.2694 177.033 40.9471 177.451 41.3651C177.869 41.7831 178.547 41.7831 178.965 41.3651Z" fill="#E1E4E5"/>
		<path d="M180.087 33.1466L183.397 29.8363C183.815 29.4183 183.815 28.7407 183.397 28.3227C182.979 27.9047 182.302 27.9047 181.884 28.3227L178.574 31.633C178.156 32.0509 178.156 32.7286 178.574 33.1466C178.991 33.5646 179.669 33.5646 180.087 33.1466Z" fill="#E1E4E5"/>
		<path d="M85.3329 136.218L75.1857 146.366C74.8162 146.735 74.8162 147.334 75.1857 147.704C75.5552 148.073 76.1543 148.073 76.5238 147.704L86.6711 137.557C87.0406 137.187 87.0406 136.588 86.6711 136.218C86.3016 135.849 85.7025 135.849 85.3329 136.218Z" fill="#E1E4E5"/>
		<path d="M84.3396 143.484L81.4132 146.41C81.0437 146.78 81.0437 147.379 81.4132 147.748C81.7827 148.118 82.3819 148.118 82.7514 147.748L85.6777 144.822C86.0472 144.452 86.0472 143.853 85.6777 143.484C85.3082 143.114 84.7091 143.114 84.3396 143.484Z" fill="#E1E4E5"/>
		<path d="M241.455 79.4808L250.936 69.999C251.282 69.6538 251.282 69.0941 250.936 68.7489L250.936 68.7486C250.591 68.4034 250.031 68.4034 249.686 68.7486L240.204 78.2304C239.859 78.5756 239.859 79.1353 240.204 79.4806L240.205 79.4808C240.55 79.826 241.109 79.826 241.455 79.4808Z" fill="#E1E4E5"/>
		<path d="M242.381 72.6919L245.116 69.9572C245.461 69.612 245.461 69.0522 245.116 68.707L245.116 68.7068C244.771 68.3616 244.211 68.3616 243.866 68.7068L241.131 71.4415C240.786 71.7867 240.786 72.3465 241.131 72.6917L241.131 72.6919C241.476 73.0371 242.036 73.0371 242.381 72.6919Z" fill="#E1E4E5"/>
		<path d="M254.247 127.918L250.286 124.146L254.247 120.374L258.207 124.146L254.247 127.918Z" stroke="#E1E4E5" stroke-width="1.91862" stroke-linecap="round" stroke-linejoin="round"/>
		<path d="M76.026 126.497C76.026 128.582 74.3369 130.269 72.25 130.269C70.1634 130.269 68.4824 128.573 68.4824 126.497C68.4824 124.412 70.1715 122.725 72.2585 122.725C74.345 122.725 76.026 124.412 76.026 126.497Z" stroke="#E1E4E5" stroke-width="1.88598" stroke-miterlimit="10"/>
		<path d="M216.689 31.793C211.414 36.2062 211.726 45.2733 211.726 45.2733C211.726 45.2733 220.591 47.1797 225.863 42.7618C231.138 38.3486 230.829 29.2862 230.829 29.2862C230.829 29.2862 221.964 27.3798 216.689 31.793Z" fill="url(#paint1_linear_2993_34322)"/>
		<path d="M123.179 47.9104C122.667 49.8228 123.853 51.8025 125.83 52.332C127.806 52.8616 129.823 51.7405 130.336 49.828C130.848 47.9156 129.662 45.936 127.685 45.4064C125.709 44.8769 123.691 45.9979 123.179 47.9104Z" fill="#E1E4E5"/>
		<path d="M260.185 97.2819C259.293 100.611 255.872 102.587 252.543 101.695C249.214 100.803 247.238 97.3807 248.13 94.0517C249.022 90.7227 252.444 88.7471 255.773 89.6391C259.102 90.5311 261.077 93.9529 260.185 97.2819Z" fill="#D8D8D8"/>
		<path d="M207.554 60.3339C207.222 61.5722 206.132 62.3559 205.118 62.0844C204.105 61.813 203.553 60.5891 203.885 59.3508C204.216 58.1125 205.307 57.3288 206.32 57.6003C207.333 57.8717 207.885 59.0956 207.554 60.3339Z" fill="#E1E4E5"/>
		<path d="M92.5823 53.3226H92.6591C93.1133 59.3593 97.9022 59.4521 97.9022 59.4521C97.9022 59.4521 92.6217 59.549 92.6217 66.5241C92.6217 59.549 87.3408 59.4521 87.3408 59.4521C87.3408 59.4521 92.1277 59.3593 92.5823 53.3226ZM231.77 50.9718H231.836C232.225 55.8012 236.33 55.8756 236.33 55.8756C236.33 55.8756 231.804 55.9531 231.804 61.5332C231.804 55.9531 227.277 55.8756 227.277 55.8756C227.277 55.8756 231.38 55.8012 231.77 50.9718Z" fill="#E1E4E5"/>
		<path d="M115.41 155.315L106.387 164.338C106.058 164.666 106.058 165.199 106.387 165.528C106.715 165.856 107.248 165.856 107.577 165.527L116.6 156.504C116.929 156.176 116.929 155.643 116.6 155.314C116.271 154.986 115.739 154.986 115.41 155.315Z" fill="white"/>
		<path d="M122.792 155.315L113.769 164.338C113.44 164.666 113.44 165.199 113.769 165.528C114.097 165.856 114.63 165.856 114.959 165.527L123.982 156.504C124.31 156.176 124.31 155.643 123.982 155.314C123.653 154.986 123.121 154.986 122.792 155.315Z" fill="white"/>
		<path d="M130.639 155.315L121.616 164.338C121.287 164.666 121.287 165.199 121.615 165.528C121.944 165.856 122.477 165.856 122.805 165.527L131.828 156.504C132.157 156.176 132.157 155.643 131.829 155.314C131.5 154.986 130.967 154.986 130.639 155.315Z" fill="white"/>
		<path d="M200.256 167.393C203.798 167.397 208.894 166.475 213.069 162.451C217.243 158.427 214.897 155.926 210.753 155.473C206.609 155.02 201.638 156.91 198.42 160.957C195.202 165.004 197.349 167.389 200.256 167.393Z" fill="url(#paint2_linear_2993_34322)"/>
	</g>
	<defs>
		<linearGradient id="paint0_linear_2993_34322" x1="155.842" y1="-32.7396" x2="158.627" y2="282.955" gradientUnits="userSpaceOnUse">
			<stop stop-color="white"/>
			<stop offset="1" stop-color="#EEEEEE"/>
		</linearGradient>
		<linearGradient id="paint1_linear_2993_34322" x1="198.45" y1="49.6257" x2="255.682" y2="19.2497" gradientUnits="userSpaceOnUse">
			<stop stop-color="white"/>
			<stop offset="1" stop-color="#EEEEEE"/>
		</linearGradient>
		<linearGradient id="paint2_linear_2993_34322" x1="218.975" y1="168.717" x2="186.757" y2="150.526" gradientUnits="userSpaceOnUse">
			<stop stop-color="white"/>
			<stop offset="1" stop-color="#EEEEEE"/>
		</linearGradient>
		<clipPath id="clip0_2993_34322">
			<rect width="306" height="204" fill="white"/>
		</clipPath>
	</defs>
</svg>
