<svg width="56" height="56" viewBox="0 0 56 56" fill="none" xmlns="http://www.w3.org/2000/svg">
<path d="M56.06 9.22531C56.06 3.30455 41.7109 0.109879 28.2099 0.109879C14.709 0.109879 0.359985 3.30455 0.359985 9.22531V9.22546V46.8713C0.359985 52.7923 14.709 55.987 28.2099 55.987C41.7109 55.987 56.06 52.7923 56.06 46.8713V9.22546V9.22531ZM54.102 37.4049C54.102 39.0604 51.4198 40.861 46.927 42.2214C41.9411 43.7311 35.2939 44.5625 28.2099 44.5625C21.1259 44.5625 14.4789 43.7311 9.49302 42.2214C5.00027 40.861 2.31803 39.0604 2.31803 37.4049V31.4745C6.69293 35.1204 17.7074 37.0542 28.2099 37.0542C38.7126 37.0542 49.727 35.1205 54.102 31.4745V37.4049ZM54.102 27.9385C54.102 29.594 51.4198 31.3945 46.927 32.755C41.9411 34.2647 35.2939 35.0961 28.2099 35.0961C21.1259 35.0961 14.4789 34.2647 9.49302 32.755C5.00027 31.3945 2.31803 29.594 2.31803 27.9385V22.0079C6.69293 25.6538 17.7074 27.5876 28.2099 27.5876C38.7126 27.5876 49.727 25.6538 54.102 22.0079V27.9385ZM54.102 18.4719C54.102 20.1274 51.4198 21.928 46.927 23.2883C41.9411 24.7981 35.2939 25.6295 28.2099 25.6295C21.1259 25.6295 14.4789 24.7981 9.49302 23.2883C5.00027 21.928 2.31803 20.1274 2.31803 18.4719V12.7613C6.69293 16.4073 17.7074 18.341 28.2099 18.341C38.7126 18.341 49.727 16.4073 54.102 12.7613V18.4719ZM9.49302 4.409C14.4789 2.89933 21.1259 2.06795 28.2099 2.06795C35.2939 2.06795 41.9411 2.89933 46.927 4.409C51.4198 5.76952 54.102 7.56995 54.102 9.22534C54.102 10.8809 51.4198 12.6813 46.927 14.0418C41.9411 15.5516 35.2939 16.3829 28.2099 16.3829C21.1259 16.3829 14.4789 15.5516 9.49302 14.0418C5.00027 12.6813 2.31803 10.8808 2.31803 9.22534C2.31803 7.56995 5.00027 5.76952 9.49302 4.409ZM46.927 51.6878C41.9411 53.1976 35.2939 54.029 28.2099 54.029C21.1259 54.029 14.4789 53.1976 9.49302 51.6878C5.00027 50.3275 2.31803 48.5269 2.31803 46.8714V40.9409C6.69293 44.5869 17.7074 46.5206 28.2099 46.5206C38.7126 46.5206 49.727 44.5869 54.102 40.9409V46.8714C54.102 48.5269 51.4198 50.3275 46.927 51.6878Z" fill="#333333"/>
</svg>
