<svg width="58" height="58" viewBox="0 0 58 58" fill="none" xmlns="http://www.w3.org/2000/svg">
<path d="M29 0.431396C13.2471 0.431396 0.431396 13.2472 0.431396 29.0001C0.431396 38.5835 5.17502 47.0797 12.4373 52.2649C12.9168 52.6072 13.4082 52.9338 13.909 53.2467C17.1666 55.2815 20.8608 56.6786 24.817 57.2616C26.1827 57.4629 27.5792 57.5686 28.9999 57.5686C30.4204 57.5686 31.8169 57.4629 33.1826 57.2616C37.1388 56.6786 40.8333 55.2816 44.0907 53.247C44.5915 52.9341 45.0831 52.6072 45.5626 52.2649C52.8252 47.0797 57.5688 38.5835 57.5688 29.0001C57.5688 13.2472 44.7529 0.431396 29 0.431396ZM29 55.5642C23.7437 55.5642 18.8391 54.0296 14.7107 51.3849C16.5996 47.9113 20.395 45.2227 25.1408 44.2527V44.9705L28.9944 47.1116L32.8589 44.971V44.2526C37.6047 45.2226 41.4001 47.9113 43.289 51.3848C39.1605 54.0296 34.2561 55.5642 29 55.5642ZM17.8828 29.4142C17.3753 29.231 17.0109 28.7458 17.0109 28.1759C17.0109 27.6059 17.3753 27.1206 17.8828 26.9373V27.2336V29.4142ZM39.8923 27.2336V26.951C40.3803 27.1444 40.7268 27.6199 40.7268 28.1755C40.7268 28.7317 40.3803 29.2073 39.8923 29.4005V27.2336ZM39.0683 22.9348C39.0034 23.2558 38.9212 23.5732 38.8217 23.885C36.8259 22.8522 34.1068 21.7164 31.2443 21.3244C26.2456 20.6408 25.8041 20.3662 25.3209 18.9666L24.9034 17.7578L23.9457 18.6049C23.9169 18.6303 21.3459 20.9008 18.7468 22.9959C18.3606 21.6241 18.3022 20.1947 18.5824 18.8055C19.4652 14.4242 23.6232 11.2441 28.4689 11.2441C29.2181 11.2441 29.9753 11.3203 30.7199 11.4702C33.4684 12.0242 35.8503 13.5303 37.4271 15.7112C38.9892 17.871 39.5716 20.4365 39.0683 22.9348ZM19.5932 27.2336V26.3449V24.5104C21.3859 23.0734 23.1967 21.5235 24.2242 20.6329C25.2054 22.1474 26.9822 22.4684 31.0124 23.0197C33.7998 23.401 36.5021 24.6039 38.1816 25.4814V26.3449V27.2336V30.2833C38.1816 35.4083 34.012 39.5773 28.8875 39.5773C23.7628 39.5773 19.5932 35.4083 19.5932 30.2833V27.2336H19.5932ZM26.8518 42.2391V41.0962C27.512 41.2204 28.1918 41.2883 28.8876 41.2883C29.6624 41.2883 30.4183 41.2067 31.1481 41.0537V42.2391V43.2329V43.9627L28.9958 45.1547L26.8518 43.9635V43.2329V42.2391ZM44.7053 50.4101C42.5032 46.4939 38.1972 43.5075 32.8588 42.51V40.5439C36.7068 39.0493 39.5109 35.4516 39.8535 31.1679C41.3129 30.9518 42.4375 29.694 42.4375 28.1754C42.4375 26.7586 41.458 25.5693 40.1412 25.2406C40.4046 24.6065 40.6096 23.9466 40.7452 23.2731C41.3441 20.3014 40.6582 17.26 38.8138 14.7086C36.9842 12.1781 34.2295 10.4324 31.0577 9.79289C30.2023 9.62037 29.3316 9.53311 28.4689 9.53311C25.7535 9.53311 23.1068 10.4065 21.0162 11.9927C18.8799 13.6136 17.4196 15.9134 16.9048 18.4675C16.4818 20.5659 16.7052 22.7368 17.55 24.7462L17.7432 25.2052C16.3526 25.4786 15.2995 26.7059 15.2995 28.1758C15.2995 29.7074 16.4441 30.9741 17.9219 31.1738C18.2734 35.5379 21.179 39.1916 25.1408 40.6306V42.5099C19.8022 43.5074 15.4967 46.4938 13.2946 50.41C6.71467 45.5706 2.43578 37.7762 2.43578 29.0001C2.43578 14.3524 14.3524 2.43578 29 2.43578C43.6475 2.43578 55.5645 14.3525 55.5645 29.0001C55.5644 37.7762 51.2852 45.5706 44.7053 50.4101Z" fill="#333333"/>
</svg>
