<svg width="58" height="58" viewBox="0 0 58 58" fill="none" xmlns="http://www.w3.org/2000/svg">
<path d="M55.2887 0.149582H2.71178C1.29899 0.149582 0.149658 1.29879 0.149658 2.71128V55.2886C0.149658 56.7011 1.29899 57.8504 2.71178 57.8504H55.2887C56.7012 57.8504 57.8504 56.7011 57.8504 55.2886V2.71128C57.8504 1.29879 56.7012 0.149582 55.2887 0.149582ZM55.2887 55.8243H2.71178C2.41623 55.8243 2.17582 55.584 2.17582 55.2886V48.9342L21.1264 29.9835L39.538 48.3953C39.7359 48.593 39.9951 48.6919 40.2544 48.6919C40.5136 48.6919 40.773 48.593 40.9708 48.3953C41.3664 47.9995 41.3664 47.3581 40.9708 46.9624L21.8428 27.8344C21.645 27.6366 21.3857 27.5377 21.1265 27.5378C20.8672 27.5377 20.6079 27.6366 20.4101 27.8344L2.17582 46.0686V2.71128C2.17582 2.41603 2.41623 2.17578 2.71178 2.17578H55.2887C55.584 2.17578 55.8242 2.41603 55.8242 2.71128V45.6547L38.0041 27.8345C37.9299 27.7603 37.847 27.7001 37.7588 27.6536C37.3767 27.4527 36.8927 27.513 36.5712 27.8345L32.5914 31.8146C32.1958 32.2102 32.1958 32.8516 32.5915 33.2473C32.7893 33.445 33.0486 33.544 33.3078 33.544C33.5669 33.544 33.8263 33.445 34.0242 33.2472L37.2876 29.9836L55.6992 48.3953C55.7384 48.4344 55.7807 48.4687 55.8242 48.5002V55.2886C55.8243 55.584 55.584 55.8243 55.2887 55.8243Z" fill="#333333"/>
</svg>
