<svg width="155" height="103" viewBox="0 0 155 103" fill="none" xmlns="http://www.w3.org/2000/svg">
<g clip-path="url(#clip0_1650_23778)">
<path d="M36.7983 81.6084C39.6171 84.4773 44.8879 83.8726 44.8879 83.8726C44.8879 83.8726 45.5856 78.6161 42.7641 75.7489C39.9455 72.8801 34.677 73.4833 34.677 73.4833C34.677 73.4833 33.9795 78.7395 36.7983 81.6084Z" fill="url(#paint0_linear_1650_23778)"/>
<path d="M109.77 21.547C106.819 23.2307 102.673 21.5262 102.673 21.5262C102.673 21.5262 103.315 17.0926 106.269 15.4109C109.22 13.7272 113.364 15.4298 113.364 15.4298C113.364 15.4298 112.722 19.8634 109.77 21.547Z" fill="url(#paint1_linear_1650_23778)"/>
<path d="M55.7593 26.8028C52.7256 29.8906 47.0524 29.2394 47.0524 29.2394C47.0524 29.2394 46.3017 23.5822 49.3383 20.4963C52.3722 17.4085 58.0425 18.0576 58.0425 18.0576C58.0425 18.0576 58.7932 23.715 55.7593 26.8028Z" fill="url(#paint2_linear_1650_23778)"/>
<path d="M39.152 55.9684C40.5903 55.9684 41.7562 57.1926 41.7562 58.7027C41.7562 60.2128 40.5903 61.437 39.152 61.437C37.7138 61.437 36.5479 60.2128 36.5479 58.7027C36.5479 57.1926 37.7138 55.9684 39.152 55.9684Z" fill="#E1E4E5"/>
<path d="M82.1425 86.005C82.9484 86.005 83.6017 86.6583 83.6017 87.4642C83.6017 88.27 82.9484 88.9233 82.1425 88.9233C81.3366 88.9233 80.6833 88.27 80.6833 87.4642C80.6833 86.6583 81.3366 86.005 82.1425 86.005Z" fill="#42BE65"/>
<path d="M119.054 69.1818C120.715 69.1818 122.061 70.5282 122.061 72.189C122.061 73.8499 120.715 75.1963 119.054 75.1963C117.393 75.1963 116.047 73.8499 116.047 72.189C116.047 70.5282 117.393 69.1818 119.054 69.1818Z" fill="#42BE65"/>
<path d="M121.571 48.1293C122.916 48.1293 124.006 47.0392 124.006 45.6945C124.006 44.3498 122.916 43.2598 121.571 43.2598C120.227 43.2598 119.137 44.3498 119.137 45.6945C119.137 47.0392 120.227 48.1293 121.571 48.1293Z" fill="#31446C" fill-opacity="0.68"/>
<path d="M42.5052 40.8149C43.6558 40.8149 44.5886 39.8821 44.5886 38.7315C44.5886 37.5809 43.6558 36.6482 42.5052 36.6482C41.3546 36.6482 40.4219 37.5809 40.4219 38.7315C40.4219 39.8821 41.3546 40.8149 42.5052 40.8149Z" fill="#42BE65" fill-opacity="0.38"/>
<path d="M54.3023 88.8777C54.9967 88.8777 55.5596 88.3499 55.5596 87.6989C55.5596 87.0478 54.9967 86.52 54.3023 86.52C53.608 86.52 53.045 87.0478 53.045 87.6989C53.045 88.3499 53.608 88.8777 54.3023 88.8777Z" fill="#E1E4E5"/>
<path d="M114.123 65.3665C115.052 65.3665 115.805 64.645 115.805 63.7549C115.805 62.8649 115.052 62.1433 114.123 62.1433C113.195 62.1433 112.442 62.8649 112.442 63.7549C112.442 64.645 113.195 65.3665 114.123 65.3665Z" fill="#E1E4E5"/>
<path d="M107.357 84.2464C108.435 84.2464 109.31 83.372 109.31 82.2934C109.31 81.2147 108.435 80.3403 107.357 80.3403C106.278 80.3403 105.404 81.2147 105.404 82.2934C105.404 83.372 106.278 84.2464 107.357 84.2464Z" fill="#E1E4E5"/>
<path d="M68.8427 20.6786C69.346 20.6786 69.754 20.2122 69.754 19.6369C69.754 19.0616 69.346 18.5952 68.8427 18.5952C68.3393 18.5952 67.9313 19.0616 67.9313 19.6369C67.9313 20.2122 68.3393 20.6786 68.8427 20.6786Z" fill="#E1E4E5"/>
<path d="M112.69 51.3952C112.553 51.9062 112.856 52.4315 113.367 52.5684C113.878 52.7053 114.403 52.4021 114.54 51.8911C114.677 51.3801 114.374 50.8548 113.863 50.7179C113.352 50.581 112.826 50.8842 112.69 51.3952Z" fill="#E1E4E5"/>
<path d="M112.402 40.113C113.121 40.113 113.704 39.53 113.704 38.8109C113.704 38.0918 113.121 37.5088 112.402 37.5088C111.683 37.5088 111.1 38.0918 111.1 38.8109C111.1 39.53 111.683 40.113 112.402 40.113Z" fill="#E1E4E5"/>
<path d="M43.6306 49.697C44.134 49.697 44.542 49.3473 44.542 48.9158C44.542 48.4843 44.134 48.1345 43.6306 48.1345C43.1273 48.1345 42.7192 48.4843 42.7192 48.9158C42.7192 49.3473 43.1273 49.697 43.6306 49.697Z" fill="#E1E4E5"/>
<path d="M87.575 17.7272C87.2901 18.7907 87.9212 19.8838 88.9847 20.1688C90.0482 20.4538 91.1413 19.8226 91.4263 18.7591C91.7113 17.6956 91.0801 16.6025 90.0166 16.3175C88.9531 16.0326 87.86 16.6637 87.575 17.7272Z" fill="#E1E4E5"/>
<path d="M27.8638 52.8909H27.8383C27.687 55.0343 26.0933 55.0673 26.0933 55.0673C26.0933 55.0673 27.8508 55.1016 27.8508 57.5784C27.8508 55.1016 29.6083 55.0673 29.6083 55.0673C29.6083 55.0673 28.0151 55.0343 27.8638 52.8909ZM119.161 25.6797H119.117C118.857 29.3712 116.112 29.428 116.112 29.428C116.112 29.428 119.139 29.4873 119.139 33.7527C119.139 29.4873 122.166 29.428 122.166 29.428C122.166 29.428 119.422 29.3712 119.161 25.6797Z" fill="#E1E4E5"/>
<path fill-rule="evenodd" clip-rule="evenodd" d="M95.0542 68.2382V77.8726C95.0542 81.4213 92.18 84.2957 88.6313 84.2957H56.516C52.9674 84.2957 50.0931 81.4213 50.0931 77.8726V45.7576C50.0931 42.2089 52.9674 39.3345 56.516 39.3345H66.1507" fill="url(#paint3_linear_1650_23778)"/>
<path fill-rule="evenodd" clip-rule="evenodd" d="M62.3271 26.6824H99.0722C103.584 26.6824 107.238 30.3365 107.238 34.8479V71.5929C107.238 76.1043 103.584 79.7584 99.0722 79.7584H62.3271C57.8157 79.7584 54.1616 76.1043 54.1616 71.5929V34.8479C54.1616 30.3365 57.8157 26.6824 62.3271 26.6824Z" fill="#42BE65"/>
<path d="M72.9777 52.833L78.8015 58.6566L91.5113 45.9431" stroke="white" stroke-width="5.51479" stroke-linecap="round" stroke-linejoin="round"/>
</g>
<defs>
<linearGradient id="paint0_linear_1650_23778" x1="48.0445" y1="91.408" x2="27.6667" y2="59.4638" gradientUnits="userSpaceOnUse">
<stop stop-color="white"/>
<stop offset="1" stop-color="#EEEEEE"/>
</linearGradient>
<linearGradient id="paint1_linear_1650_23778" x1="98.3729" y1="26.9258" x2="122.289" y2="5.64584" gradientUnits="userSpaceOnUse">
<stop stop-color="white"/>
<stop offset="1" stop-color="#EEEEEE"/>
</linearGradient>
<linearGradient id="paint2_linear_1650_23778" x1="43.6551" y1="37.35" x2="65.5877" y2="2.96861" gradientUnits="userSpaceOnUse">
<stop stop-color="white"/>
<stop offset="1" stop-color="#EEEEEE"/>
</linearGradient>
<linearGradient id="paint3_linear_1650_23778" x1="71.615" y1="14.1268" x2="73.0014" y2="133.206" gradientUnits="userSpaceOnUse">
<stop stop-color="white"/>
<stop offset="1" stop-color="#EEEEEE"/>
</linearGradient>
<clipPath id="clip0_1650_23778">
<rect width="154.5" height="103" fill="white"/>
</clipPath>
</defs>
</svg>
