<svg width="56" height="56" viewBox="0 0 56 56" fill="none" xmlns="http://www.w3.org/2000/svg">
<path d="M50.6469 11.9468C50.2695 11.4159 49.8736 10.8991 49.461 10.3969C44.3639 4.19396 36.6363 0.230652 28.0001 0.230652C19.3638 0.230652 11.6361 4.19396 6.53886 10.3969C6.12602 10.8991 5.73035 11.4158 5.35285 11.9468C2.12862 16.4823 0.230713 22.0237 0.230713 27.9999C0.230713 34.0104 2.15086 39.581 5.40906 44.1307C5.78843 44.6603 6.18519 45.1765 6.5999 45.6771C11.6974 51.8378 19.398 55.7693 28.0001 55.7693C36.602 55.7693 44.3027 51.8378 49.4001 45.6771C49.8147 45.1765 50.2116 44.6603 50.5908 44.1307C53.8489 39.581 55.7692 34.0104 55.7692 27.9999C55.7692 22.0237 53.8714 16.4823 50.6469 11.9468ZM47.8694 11.5326C47.4274 11.8169 46.9636 12.094 46.4759 12.3622C45.0279 13.1587 43.4365 13.8487 41.7346 14.4275C41.0705 12.3173 40.2468 10.3524 39.2741 8.58383C38.048 6.35407 36.6428 4.54063 35.1123 3.17911C40.1683 4.6302 44.5939 7.58737 47.8694 11.5326ZM42.3031 20.0069C42.5833 20.0069 42.8486 20.0698 43.0881 20.1799C43.7386 20.4787 44.1926 21.1349 44.1926 21.8965C44.1926 22.4866 43.9204 23.014 43.4953 23.3607C43.1699 23.626 42.7549 23.7859 42.3031 23.7859C42.0399 23.7859 41.7895 23.7318 41.5616 23.634C40.8874 23.3452 40.4134 22.6753 40.4134 21.8965C40.4134 21.289 40.7028 20.749 41.1495 20.4031C41.469 20.1558 41.8686 20.0069 42.3031 20.0069ZM28.9757 2.24771C32.1801 2.67835 35.1993 5.22346 37.5643 9.5241C38.475 11.1797 39.2471 13.0222 39.8717 15.0039C36.527 15.9405 32.8267 16.47 28.9757 16.5466V2.24771ZM28.9757 18.498C33.0055 18.4207 36.8881 17.8646 40.4083 16.8786C40.5353 17.3714 40.6534 17.8721 40.763 18.3792C39.4099 18.9738 38.4623 20.3263 38.4623 21.8966C38.4623 23.8105 39.8696 25.4014 41.7038 25.69C41.7257 26.1526 41.7413 26.6182 41.75 27.0856H31.7298C31.3956 25.7216 30.3309 24.6416 28.9757 24.2852V18.498ZM40.3786 39.2356C36.8663 38.2544 32.994 37.7016 28.9757 37.6245V31.7147C30.2902 31.3693 31.3309 30.3428 31.6974 29.0369H41.7474C41.6715 32.6233 41.203 36.0783 40.3786 39.2356ZM40.7783 46.3167C40.7781 47.3587 39.9305 48.2064 38.8888 48.2064C38.8662 48.2064 38.8445 48.2037 38.8221 48.2029C38.1018 48.1775 37.484 47.7483 37.1877 47.1341C37.068 46.8864 36.999 46.6099 36.999 46.3167C36.999 45.3851 37.6772 44.6111 38.5651 44.4568C38.6704 44.4384 38.7782 44.4271 38.8886 44.4271C39.4974 44.4271 40.0382 44.7176 40.3841 45.166C40.6302 45.4854 40.7783 45.8836 40.7783 46.3167ZM27.0245 2.24771V16.5466C23.1733 16.47 19.473 15.9404 16.128 15.0042C16.2761 14.5346 16.4324 14.0728 16.5968 13.6198C16.6758 13.6246 16.755 13.6278 16.8351 13.6278C18.9528 13.6278 20.6759 11.9047 20.6759 9.78702C20.6759 8.85972 20.3455 8.00837 19.7966 7.34402C21.9117 4.36435 24.4061 2.59951 27.0245 2.24771ZM15.5918 16.8786C19.1119 17.8649 22.9947 18.4207 27.0245 18.498V24.2852C25.669 24.6416 24.6045 25.7215 24.2701 27.0856H14.2499C14.3169 23.4983 14.7763 20.0409 15.5918 16.8786ZM14.9455 9.78702C14.9455 8.74502 15.7931 7.89739 16.8351 7.89739C16.9272 7.89739 17.0169 7.90623 17.1055 7.91895C17.8177 8.02175 18.4016 8.52133 18.6254 9.18704C18.6888 9.37576 18.7247 9.57711 18.7247 9.78702C18.7247 10.6259 18.1748 11.3382 17.4166 11.584C17.2332 11.6437 17.0381 11.6766 16.8351 11.6766C16.3101 11.6766 15.8349 11.4611 15.4922 11.1144C15.1546 10.7728 14.9455 10.304 14.9455 9.78702ZM20.8879 3.17915C19.9445 4.01818 19.0486 5.02858 18.2136 6.20311C17.7853 6.03779 17.3208 5.94623 16.8351 5.94623C14.7174 5.94623 12.9943 7.66919 12.9943 9.78705C12.9943 11.1345 13.6925 12.3213 14.7452 13.007C14.5773 13.4726 14.417 13.9462 14.2654 14.4276C12.5635 13.8487 10.9721 13.1588 9.52401 12.3623C9.03646 12.094 8.5725 11.817 8.13048 11.5326C11.4059 7.58737 15.8317 4.6302 20.8879 3.17915ZM6.9378 13.0841C7.45879 13.4246 8.00656 13.7545 8.58377 14.072C10.1551 14.9362 11.8816 15.6821 13.7268 16.3035C12.8556 19.6506 12.3668 23.3037 12.2985 27.0856H2.19877C2.38083 21.8831 4.10899 17.0667 6.9378 13.0841ZM14.4633 32.633C14.9731 32.9716 15.3101 33.5505 15.3101 34.2075C15.3101 34.6894 15.1273 35.1285 14.829 35.4626C14.4829 35.8508 13.9806 36.0968 13.4211 36.0968H13.4208C13.2569 36.0968 13.0987 36.0735 12.9467 36.0342C12.1339 35.8229 11.5312 35.0851 11.5312 34.2075C11.5312 33.5007 11.9216 32.8841 12.4977 32.5601C12.7708 32.4065 13.0853 32.3176 13.4208 32.3176C13.806 32.3176 14.1643 32.4343 14.4633 32.633ZM2.20253 29.0369H12.3012C12.3111 29.533 12.3285 30.0272 12.3528 30.5187C10.7532 30.9824 9.58001 32.4598 9.58001 34.2075C9.58001 36.2957 11.2562 37.9993 13.3341 38.0456C13.4634 38.6418 13.6042 39.23 13.7565 39.8088C11.9001 40.4324 10.1637 41.1817 8.58405 42.0505C8.02877 42.3558 7.50082 42.6727 6.99778 42.9993C4.15585 39.0314 2.40868 34.2292 2.20253 29.0369ZM8.19746 44.5463C8.61939 44.2772 9.06114 44.0148 9.52404 43.7602C10.9823 42.9581 12.5857 42.2642 14.3008 41.6829C14.9589 43.7511 15.7701 45.6787 16.7259 47.416C17.9523 49.6459 19.3574 51.4597 20.8882 52.8214C15.8662 51.38 11.4661 48.4519 8.19746 44.5463ZM27.0245 53.7523C23.8198 53.3215 20.8007 50.7765 18.4356 46.476C17.5421 44.8517 16.7824 43.0473 16.1642 41.1084C19.4995 40.1778 23.1872 39.6522 27.0245 39.5756V53.7523ZM27.0245 37.6244C23.0059 37.7016 19.1335 38.2544 15.6212 39.2356C15.4807 38.6967 15.3506 38.1489 15.2309 37.5937C16.4383 36.9455 17.2613 35.6706 17.2613 34.2075C17.2613 32.3933 15.9971 30.87 14.3037 30.47C14.2794 29.995 14.2628 29.5169 14.2523 29.0369H24.3025C24.6693 30.3428 25.71 31.3693 27.0245 31.7147V37.6244ZM27.0245 29.6152C26.7835 29.469 26.5771 29.2717 26.4221 29.0369C26.2256 28.7389 26.1105 28.3831 26.1105 27.9999C26.1105 27.6684 26.197 27.3568 26.3477 27.0856C26.5081 26.7967 26.7426 26.5555 27.0245 26.3847C27.3096 26.2118 27.6429 26.1103 28.0001 26.1103C28.3572 26.1103 28.6903 26.2118 28.9757 26.3847C29.2576 26.5555 29.4921 26.7967 29.6525 27.0856C29.8033 27.3568 29.8897 27.6684 29.8897 27.9999C29.8897 28.3831 29.7743 28.7389 29.5778 29.0369C29.423 29.2717 29.2167 29.469 28.9757 29.6152C28.6903 29.7881 28.3572 29.8896 28.0001 29.8896C27.6429 29.8896 27.3096 29.7881 27.0245 29.6152ZM28.9757 53.7523V39.5756C32.813 39.6522 36.5005 40.1778 39.8359 41.1084C39.6847 41.582 39.526 42.0487 39.3581 42.5059C39.204 42.4867 39.0476 42.4759 38.8884 42.4759C36.7708 42.4759 35.0479 44.199 35.0479 46.3167C35.0479 47.3044 35.4228 48.2061 36.0378 48.8874C33.9585 51.7275 31.5258 53.4096 28.9757 53.7523ZM35.1117 52.8214C36.0115 52.0209 36.8675 51.0635 37.6696 49.9581C38.0528 50.0866 38.4626 50.1576 38.8888 50.1576C41.0063 50.1576 42.7293 48.4344 42.7295 46.3167C42.7293 45.0525 42.1152 43.9294 41.1695 43.229C41.3561 42.7236 41.5322 42.2074 41.699 41.6829C43.4143 42.2642 45.0177 42.9581 46.4759 43.7602C46.9388 44.0149 47.3807 44.2772 47.8026 44.5465C44.5338 48.4521 40.1339 51.38 35.1117 52.8214ZM49.0021 42.9993C48.4991 42.6727 47.9711 42.3557 47.4161 42.0505C45.8365 41.1817 44.0999 40.4324 42.2434 39.8088C43.1234 36.4674 43.6216 32.8174 43.6988 29.0369H53.7975C53.811 28.6931 53.818 28.3472 53.818 27.9999C53.818 28.0002 53.818 28.0002 53.818 28.0002C53.818 28.3472 53.811 28.6928 53.7975 29.0369C53.5912 34.2292 51.8441 39.0314 49.0021 42.9993ZM53.8012 27.0856H43.7014C43.6918 26.5523 43.6739 26.0214 43.6475 25.4937C45.104 24.9473 46.1438 23.5415 46.1438 21.8965C46.1438 19.9103 44.628 18.2712 42.6926 18.0753C42.5644 17.4761 42.4247 16.8852 42.2732 16.3035C44.1184 15.6821 45.8449 14.9362 47.416 14.072C47.9934 13.7544 48.5411 13.4243 49.0623 13.0841C51.8909 17.0667 53.6192 21.8829 53.8012 27.0856H54.4396H53.8012Z" fill="#333333"/>
</svg>
