<svg width="52" height="56" viewBox="0 0 52 56" fill="none" xmlns="http://www.w3.org/2000/svg">
<path d="M43.6848 1.01008V6.86553C40.6126 7.33994 38.2529 10.0022 38.2529 13.2053C38.2529 16.4083 40.6126 19.0704 43.6848 19.545V54.9899C43.6848 55.5329 44.1249 55.9733 44.6681 55.9733C45.2111 55.9733 45.6515 55.5329 45.6515 54.9899V19.545C48.7237 19.0703 51.0832 16.4083 51.0832 13.2053C51.0832 10.0022 48.7237 7.33991 45.6515 6.86553V1.01008C45.6515 0.467065 45.2111 0.0267181 44.6681 0.0267181C44.1248 0.026687 43.6848 0.467065 43.6848 1.01008ZM49.1166 13.2053C49.1166 15.3202 47.6325 17.0937 45.6515 17.5429C45.3348 17.6145 45.0061 17.6537 44.6681 17.6537C44.3301 17.6537 44.0014 17.6145 43.6848 17.5429C41.7035 17.0937 40.2197 15.3202 40.2197 13.2053C40.2197 11.0901 41.7035 9.31653 43.6848 8.86762C44.0014 8.79573 44.3301 8.75677 44.6681 8.75677C45.0061 8.75677 45.3348 8.79573 45.6515 8.86762C47.6325 9.31653 49.1166 11.0901 49.1166 13.2053Z" fill="#333333"/>
<path d="M8.31568 54.9899V19.545C11.3882 19.0703 13.7478 16.4083 13.7478 13.2053C13.7478 10.0022 11.3882 7.33991 8.31568 6.86553V1.01008C8.31568 0.467065 7.87558 0.0267181 7.33232 0.0267181C6.78931 0.0267181 6.34896 0.467096 6.34896 1.01008V6.86553C3.27677 7.33991 0.917114 10.0022 0.917114 13.2053C0.917114 16.4083 3.27677 19.0704 6.34893 19.545V54.9899C6.34893 55.5329 6.78931 55.9733 7.33229 55.9733C7.87558 55.9733 8.31568 55.5329 8.31568 54.9899ZM2.88387 13.2053C2.88387 11.0901 4.36796 9.31653 6.34893 8.86762C6.66558 8.79573 6.99455 8.75677 7.33229 8.75677C7.67031 8.75677 7.99903 8.79573 8.31565 8.86762C10.2969 9.31653 11.781 11.0901 11.781 13.2053C11.781 15.3202 10.2969 17.0937 8.31565 17.5429C7.999 17.6145 7.67031 17.6537 7.33229 17.6537C6.99455 17.6537 6.66555 17.6145 6.34893 17.5429C4.36796 17.0937 2.88387 15.3202 2.88387 13.2053Z" fill="#333333"/>
<path d="M26.9837 54.9899V44.1625C30.0558 43.6879 32.4155 41.0258 32.4155 37.8228C32.4155 34.6198 30.0558 31.9574 26.9837 31.4831V1.01008C26.9837 0.467065 26.5433 0.0267181 26.0003 0.0267181C25.457 0.0267181 25.0169 0.467096 25.0169 1.01008V31.483C21.9445 31.9574 19.5848 34.6197 19.5848 37.8228C19.5848 41.0258 21.9445 43.6879 25.0169 44.1625V54.9899C25.0169 55.5329 25.457 55.9733 26.0003 55.9733C26.5433 55.9733 26.9837 55.5329 26.9837 54.9899ZM21.5516 37.8228C21.5516 35.7076 23.0357 33.934 25.0169 33.4851C25.3336 33.4133 25.6623 33.3743 26.0003 33.3743C26.3383 33.3743 26.667 33.4133 26.9837 33.4851C28.9647 33.934 30.4487 35.7076 30.4487 37.8228C30.4487 39.9377 28.9647 41.7112 26.9837 42.1604C26.667 42.232 26.3383 42.2712 26.0003 42.2712C25.6623 42.2712 25.3336 42.232 25.0169 42.1604C23.0357 41.7113 21.5516 39.9377 21.5516 37.8228Z" fill="#333333"/>
</svg>
