<svg width="48" height="56" viewBox="0 0 48 56" fill="none" xmlns="http://www.w3.org/2000/svg">
<path d="M26.3588 36.1492V35.9137C28.1589 35.0902 29.4348 33.3832 29.7126 31.4284C30.4716 31.1531 31.0067 30.4199 31.0067 29.5898C31.0067 28.8751 30.6207 28.2354 30.0232 27.8941C30.0853 27.6995 30.1364 27.5032 30.1757 27.3072C30.4936 25.7307 30.1314 24.1195 29.1561 22.7703C28.1964 21.443 26.7541 20.5277 25.0945 20.193C24.6482 20.1031 24.1932 20.0575 23.7421 20.0575C22.3187 20.0575 20.9301 20.5164 19.8318 21.3499C18.7008 22.208 17.9274 23.4273 17.654 24.7831C17.4466 25.8111 17.5313 26.8715 17.8978 27.8664C17.2766 28.2003 16.8653 28.8565 16.8653 29.59C16.8653 30.431 17.4086 31.1667 18.1787 31.4358C18.4641 33.4371 19.7815 35.1604 21.6408 35.9635V36.1493C17.7789 37.0242 15.116 39.9128 15.116 43.2884V44.19H18.4771V44.1884H18.8504V44.19H32.8837V43.2884C32.8837 39.9127 30.2208 37.0242 26.3588 36.1492ZM23.7421 21.8606C24.0733 21.8606 24.4085 21.8943 24.7384 21.9605C25.9516 22.2054 27.0016 22.8681 27.6947 23.8269C28.3411 24.7206 28.6014 25.7718 28.435 26.8033C27.5478 26.3892 26.3816 25.9515 25.1548 25.7834C22.8489 25.4682 22.8119 25.361 22.6746 24.9625L22.2343 23.6884L21.2216 24.5846C21.1139 24.6793 20.2978 25.3966 19.3563 26.1768C19.3303 25.8307 19.352 25.4837 19.4215 25.1392C19.8046 23.2394 21.6216 21.8606 23.7421 21.8606ZM19.9219 28.0442C20.5541 27.5327 21.1788 27.0044 21.6308 26.6167C22.2573 27.1818 23.2341 27.3407 24.9102 27.57C26.0471 27.7255 27.1621 28.1808 27.9686 28.5807V30.6126C27.9686 32.8312 26.1639 34.6359 23.9454 34.6359C21.7266 34.6359 19.9219 32.8312 19.9219 30.6126V28.0442H19.9219ZM23.444 36.4169C23.8167 36.4498 24.1873 36.4458 24.5556 36.407V36.9637L23.9983 37.2726L23.444 36.9647V36.4169ZM17.0111 42.3858C17.4251 40.3666 19.1981 38.6881 21.6408 38.0083V38.0257L23.9967 39.3346L26.3588 38.0263V38.0083C28.8018 38.6881 30.575 40.367 30.9885 42.3866L18.843 42.3851V42.3858H17.0111V42.3858Z" fill="#333333"/>
<path d="M32.8837 48.1225H15.116C14.5787 48.1225 14.1431 47.6869 14.1431 47.1495C14.1431 46.6121 14.5787 46.1766 15.116 46.1766H32.8837C33.4211 46.1766 33.8567 46.6121 33.8567 47.1495C33.8567 47.6869 33.4211 48.1225 32.8837 48.1225Z" fill="#333333"/>
<path d="M45.1966 5.93693H28.7084V2.98097C28.7084 1.52478 27.5236 0.340073 26.0675 0.340073H21.9324C20.4762 0.340073 19.2915 1.52478 19.2915 2.98097V5.9369H2.80325C1.34703 5.9369 0.162354 7.12161 0.162354 8.5778V53.019C0.162354 54.4752 1.34706 55.6599 2.80325 55.6599H45.1966C46.6528 55.6599 47.8375 54.4752 47.8375 53.019V8.57783C47.8375 7.12161 46.6527 5.93693 45.1966 5.93693ZM21.2374 2.98097C21.2374 2.59777 21.5492 2.28598 21.9324 2.28598H26.0675C26.4506 2.28598 26.7624 2.59777 26.7624 2.98097V5.9369V7.88281V11.8766C26.7624 12.2598 26.4507 12.5716 26.0675 12.5716H21.9324C21.5492 12.5716 21.2374 12.2598 21.2374 11.8766V7.88284V5.93693V2.98097ZM45.8916 53.0191C45.8916 53.4022 45.5798 53.714 45.1966 53.714H2.80325C2.42006 53.714 2.10826 53.4022 2.10826 53.0191V8.57783C2.10826 8.19463 2.42006 7.88284 2.80325 7.88284H19.2915V11.8766C19.2915 13.3328 20.4762 14.5175 21.9324 14.5175H26.0675C27.5237 14.5175 28.7084 13.3328 28.7084 11.8766V7.88284H45.1966C45.5798 7.88284 45.8916 8.19463 45.8916 8.57783V53.0191H45.8916Z" fill="#333333"/>
</svg>
