<svg width="56" height="46" viewBox="0 0 56 46" fill="none" xmlns="http://www.w3.org/2000/svg">
<path d="M46.0069 33.6705C46.0078 33.6707 46.0088 33.6707 46.0098 33.6705H46.1119C46.5253 33.6705 46.8947 33.4118 47.0361 33.0234L55.8688 8.75547C55.9786 8.45388 55.9343 8.1177 55.7503 7.85478C55.5661 7.59198 55.2655 7.43543 54.9445 7.43543H37.174H27.4892H10.3985L8.20491 1.47575C8.20285 1.47012 8.20008 1.4649 8.19791 1.45926C8.1905 1.44032 8.18254 1.42181 8.17401 1.40355C8.16838 1.39119 8.16263 1.37897 8.15647 1.36693C8.14853 1.3514 8.14016 1.33631 8.13136 1.32135C8.12324 1.30735 8.11503 1.29347 8.10625 1.27991C8.09844 1.26796 8.0902 1.25633 8.08195 1.24479C8.07113 1.22973 8.06027 1.21476 8.04876 1.20048C8.04107 1.19087 8.03299 1.18154 8.02502 1.17236C8.01211 1.15755 7.99911 1.14286 7.98551 1.12886C7.97699 1.12022 7.96806 1.112 7.95928 1.1036C7.94541 1.09044 7.93169 1.07753 7.91716 1.06518C7.90674 1.05641 7.89576 1.04804 7.88505 1.03964C7.87146 1.02925 7.85786 1.01864 7.84389 1.00893C7.83073 0.999723 7.81714 0.991229 7.80354 0.982736C7.79107 0.974927 7.77856 0.967087 7.76584 0.959838C7.75003 0.950909 7.73385 0.942821 7.71764 0.934732C7.70598 0.928945 7.69447 0.923065 7.68252 0.917838C7.66525 0.910154 7.64764 0.903278 7.62985 0.896434C7.6179 0.891923 7.60596 0.88738 7.59388 0.883274C7.57662 0.877487 7.55932 0.872572 7.54177 0.867749C7.52774 0.863892 7.51377 0.86022 7.49977 0.856923C7.484 0.853345 7.4682 0.850451 7.45217 0.847589C7.43531 0.844696 7.41829 0.841958 7.40112 0.839874C7.3874 0.838256 7.37368 0.836856 7.3598 0.835892C7.34005 0.834274 7.32026 0.833309 7.30054 0.832874C7.29422 0.832749 7.28819 0.831909 7.28184 0.831909H1.05536C0.512124 0.831909 0.0717773 1.27222 0.0717773 1.81549C0.0717773 2.35872 0.512124 2.79907 1.05536 2.79907H6.59572L9.34177 10.26L17.3054 32.1399C17.3016 32.1494 17.2969 32.1587 17.2932 32.1685L14.5886 39.5166C14.5717 39.5624 14.5597 39.6088 14.5499 39.6553C14.4933 39.7797 14.4609 39.9173 14.4609 40.0627C14.4609 40.606 14.9012 41.0464 15.4445 41.0464H19.2946C19.6562 43.3777 21.6768 45.1681 24.108 45.1681C26.5391 45.1681 28.5598 43.3777 28.9214 41.0464H35.6757C36.0373 43.3777 38.058 45.1681 40.4891 45.1681C42.9203 45.1681 44.9409 43.3777 45.3025 41.0464H48.0306C48.5739 41.0464 49.0142 40.606 49.0142 40.0627C49.0142 39.5195 48.5739 39.0792 48.0306 39.0792H45.206C44.6641 36.9805 42.7547 35.4258 40.4892 35.4258C38.2235 35.4258 36.3142 36.9805 35.7722 39.0792H28.8251C28.2827 36.9805 26.3735 35.4258 24.108 35.4258C21.8425 35.4258 19.9332 36.9805 19.3909 39.0792H16.846L18.8367 33.6705H46.0069V33.6705ZM37.8564 39.0791C38.3182 38.0854 39.3231 37.393 40.4891 37.393C41.6551 37.393 42.6601 38.0854 43.1218 39.0791C43.2941 39.45 43.3931 39.8617 43.3931 40.297C43.3931 40.5565 43.3556 40.8068 43.2916 41.0464C42.9598 42.2849 41.8308 43.201 40.4891 43.201C39.1474 43.201 38.0185 42.2849 37.6867 41.0464C37.6226 40.8068 37.5852 40.5565 37.5852 40.297C37.5852 39.8617 37.6841 39.45 37.8564 39.0791ZM21.4753 39.0791C21.9369 38.0854 22.9421 37.393 24.108 37.393C25.274 37.393 26.2791 38.0854 26.7407 39.0791C26.9131 39.45 27.012 39.8617 27.012 40.297C27.012 40.5565 26.9746 40.8068 26.9103 41.0464C26.5787 42.2849 25.4498 43.201 24.108 43.201C22.7663 43.201 21.6373 42.2849 21.3057 41.0464C21.2415 40.8068 21.204 40.5565 21.204 40.297C21.204 39.8617 21.303 39.45 21.4753 39.0791ZM20.0611 31.7033H19.2401L18.6038 29.9552L17.056 25.7027H25.0079V31.7033H20.0611ZM48.3231 23.7355H39.3188V17.5062H50.5904L48.3231 23.7355ZM37.3516 23.7355H26.975V17.5062H37.3516V23.7355ZM25.0079 23.7355H16.34L14.0727 17.5062H25.0079V23.7355ZM26.975 31.7033V25.7027H37.3516V31.7033H26.975ZM46.0593 29.9553L45.4231 31.7033H44.6021H39.3188V25.7027H47.6072L46.0593 29.9553ZM51.3063 15.539H39.3188V9.40265H53.5398L51.3063 15.539ZM28.1779 9.40265H36.4853H37.3516V15.539H26.975V9.40265H28.1779ZM11.1233 9.40265H25.0079V15.539H13.3568L11.1907 9.58763C11.1905 9.58751 11.1905 9.58751 11.1905 9.58751L11.1893 9.58409L11.1233 9.40265Z" fill="#333333"/>
</svg>
